<?xml version="1.0" encoding="UTF-8" standalone="no"?>
<!-- Created with Inkscape (http://www.inkscape.org/) -->

<svg
   xmlns:dc="http://purl.org/dc/elements/1.1/"
   xmlns:cc="http://creativecommons.org/ns#"
   xmlns:rdf="http://www.w3.org/1999/02/22-rdf-syntax-ns#"
   xmlns:svg="http://www.w3.org/2000/svg"
   xmlns="http://www.w3.org/2000/svg"
   xmlns:sodipodi="http://sodipodi.sourceforge.net/DTD/sodipodi-0.dtd"
   xmlns:inkscape="http://www.inkscape.org/namespaces/inkscape"
   inkscape:version="0.92.3 (2405546, 2018-03-11)"
   sodipodi:docname="greyrepair.svg"
   viewBox="0 0 375 372"
   height="372"
   width="375"
   id="svg3721"
   version="1.1">
  <metadata
     id="metadata3727">
    <rdf:RDF>
      <cc:Work
         rdf:about="">
        <dc:format>image/svg+xml</dc:format>
        <dc:type
           rdf:resource="http://purl.org/dc/dcmitype/StillImage" />
        <dc:title />
      </cc:Work>
    </rdf:RDF>
  </metadata>
  <defs
     id="defs3725">
    <filter
       inkscape:label="Opacity"
       style="color-interpolation-filters:sRGB;"
       id="filter3738">
      <feColorMatrix
         values="1 0 0 0 0 0 1 0 0 0 0 0 1 0 0 0 0 0 5 -1 "
         result="colormatrix"
         id="feColorMatrix3734" />
      <feComposite
         in2="colormatrix"
         operator="arithmetic"
         k2="0.36"
         result="fbSourceGraphic"
         id="feComposite3736" />
      <feColorMatrix
         result="fbSourceGraphicAlpha"
         in="fbSourceGraphic"
         values="0 0 0 -1 0 0 0 0 -1 0 0 0 0 -1 0 0 0 0 1 0"
         id="feColorMatrix3740" />
      <feColorMatrix
         id="feColorMatrix3742"
         values="1 0 0 0 0 0 1 0 0 0 0 0 1 0 0 0 0 0 5 -1 "
         result="colormatrix"
         in="fbSourceGraphic" />
      <feComposite
         in2="colormatrix"
         id="feComposite3744"
         operator="arithmetic"
         k2="0.28"
         result="composite" />
    </filter>
  </defs>
  <sodipodi:namedview
     inkscape:current-layer="svg3721"
     inkscape:window-maximized="0"
     inkscape:window-y="248"
     inkscape:window-x="109"
     inkscape:cy="193.76823"
     inkscape:cx="164.58708"
     inkscape:zoom="1.405914"
     showgrid="false"
     id="namedview3723"
     inkscape:window-height="801"
     inkscape:window-width="922"
     inkscape:pageshadow="2"
     inkscape:pageopacity="0"
     guidetolerance="10"
     gridtolerance="10"
     objecttolerance="10"
     borderopacity="1"
     bordercolor="#666666"
     pagecolor="#ffffff" />
  <path
     style="fill:#353435;filter:url(#filter3738)"
     d="m 36.053656,368.95344 c -4.866477,-0.0346 -7.713871,-0.65128 -11.060378,-2.39553 -2.478697,-1.29193 -8.412241,-6.40033 -13.185654,-11.35198 C 5.282746,348.4374 2.961004,345.30905 2.453055,342.60145 2.081455,340.62065 1.377499,339 0.88870897,339 0.39991897,339 -3.2504779e-8,336.75 -3.2504779e-8,334 -3.2504779e-8,331.25 0.44999997,329 0.99999997,329 1.55,329 2,328.28051 2,327.40113 c 0,-0.87938 0.676173,-3.01688 1.502608,-4.75 C 4.329042,320.91801 6.485762,317.925 8.29532,316 c 1.809558,-1.925 15.193421,-14.75 29.741919,-28.5 14.548498,-13.75 31.85445,-30.175 38.45768,-36.5 6.60322,-6.325 20.0888,-19.15 29.967941,-28.5 9.87914,-9.35 24.17442,-22.95093 31.76729,-30.22428 7.59287,-7.27335 14.75143,-13.73068 15.90792,-14.34961 1.91212,-1.02334 3.77761,0.54957 20.58193,17.35389 l 18.47923,18.47923 -1.24985,2.37038 c -0.68742,1.30372 -6.47162,7.77039 -12.85379,14.37039 -6.38217,6.6 -22.85113,23.925 -36.59769,38.5 -13.74656,14.575 -29.94468,31.68063 -35.99582,38.01252 -6.05115,6.33188 -20.677081,21.75061 -32.502081,34.26384 -16.128447,17.06714 -22.735792,23.37246 -26.446343,25.23748 -3.813267,1.91665 -6.447615,2.47549 -11.5,2.4396 z m 0.728463,-20.9596 c 1.255165,0.003 3.730165,-0.61342 5.5,-1.37068 1.769834,-0.75726 4.519416,-2.76122 6.110181,-4.45325 2.142598,-2.27898 3.000969,-4.31975 3.311535,-7.87316 0.301902,-3.45426 -0.116205,-5.77631 -1.493911,-8.29675 -1.052231,-1.925 -3.396469,-4.5125 -5.209418,-5.75 -2.030042,-1.38568 -4.795102,-2.25 -7.198049,-2.25 -2.145977,0 -5.11693,0.63224 -6.602117,1.40499 -1.485187,0.77274 -3.657413,2.46024 -4.827168,3.75 -1.169756,1.28975 -2.65833,4.00577 -3.307943,6.03559 -0.912596,2.85156 -0.907041,4.60537 0.02444,7.71436 0.663053,2.21308 2.151628,4.90992 3.307943,5.99299 1.156315,1.08306 3.452391,2.67133 5.102391,3.52948 1.65,0.85815 4.026953,1.56304 5.282119,1.56643 z M 325.39389,369 c -2.9212,0 -4.61472,-0.62521 -6.09461,-2.25 -1.12715,-1.2375 -2.55559,-3.23292 -3.17432,-4.43426 C 315.50623,361.1144 315,358.6403 315,356.81775 c 0,-3.04059 -3.93582,-7.23841 -47.75,-50.92865 l -47.75,-47.61492 -8.91295,-4.38709 c -7.05881,-3.47445 -9.3382,-5.14169 -10.95715,-8.01451 l -2.0442,-3.62742 1.80332,-3.99905 c 0.99183,-2.19948 4.46004,-6.62805 7.70715,-9.84128 C 210.34328,225.19161 213,221.78786 213,220.84094 213,219.89258 167.97132,173.92722 112.75,118.50554 25.813842,31.253959 12.141322,17.135359 9.799241,12.195909 8.313824,9.0631594 7.076324,5.7124994 7.049241,4.7499994 c -0.03258,-1.15794 0.7048,-1.75 2.179547,-1.75 1.225833,0 5.163333,1.12237 8.75,2.49416 L 24.5,7.9883294 124.49812,107.99416 C 179.49709,162.99737 225.12209,208 225.887,208 c 0.76492,0 4.92333,-3.375 9.24092,-7.5 7.04638,-6.73208 8.25297,-7.5 11.7842,-7.5 3.05967,0 4.6179,0.68386 7.01096,3.07692 1.6923,1.69231 3.07692,3.49111 3.07692,3.99733 0,0.50623 1.41422,3.95911 3.14271,7.67308 2.9008,6.23287 6.75638,10.3799 50.08761,53.87375 l 46.94488,47.12109 4.86758,0.57649 c 2.67716,0.31707 5.99519,1.31534 7.3734,2.21838 1.37821,0.90303 2.7787,2.50162 3.11221,3.55242 0.33351,1.0508 1.02606,1.91054 1.539,1.91054 0.51293,0 0.93068,1.4625 0.92832,3.25 -0.004,2.90363 -2.4317,5.67462 -22.78042,26 L 329.43915,369 Z M 218.13353,188 c -0.36023,0 -8.50493,-7.85959 -18.09933,-17.46576 -15.99807,-16.01769 -17.36518,-17.66306 -16.48928,-19.84553 0.52529,-1.30888 7.93008,-8.93438 16.45508,-16.94556 8.525,-8.01118 21.04306,-19.89603 27.8179,-26.41077 l 12.3179,-11.844991 -1.12934,-2.97039 c -0.62114,-1.63372 -1.77669,-6.0478 -2.5679,-9.80907 C 235.64735,78.946649 235,73.463249 235,70.522589 c 0,-2.94066 0.66682,-8.87374 1.48182,-13.18462 0.8919,-4.7176 3.11433,-11.14971 5.58247,-16.15665 2.76156,-5.60216 6.26786,-10.61603 10.73721,-15.35378 4.05007,-4.29329 9.54607,-8.73826 14.10192,-11.40516 4.10595,-2.40353 10.41989,-5.2500696 14.03097,-6.3256496 3.61109,-1.07559 9.9666,-2.24265 14.12336,-2.59347 4.15676,-0.35083 8.76926,-0.3338 10.25,0.0378 1.54261,0.38717 2.69225,1.37029 2.69225,2.30229 0,0.89461 -5.15237,6.8083296 -11.44971,13.1415896 l -11.44972,11.51502 -1.55028,11.95846 C 282.69763,51.035579 282,58.918619 282,61.976289 v 5.5594 l 10.48105,10.44539 10.48105,10.44538 3.76895,-0.16454 c 2.07292,-0.0905 9.79878,-0.83858 17.16857,-1.6624 l 13.39963,-1.49786 12.28815,-12.14833 c 6.75848,-6.68158 12.76615,-11.8529 13.35037,-11.49183 0.63378,0.3917 1.06223,4.64541 1.06223,10.54586 0,7.73369 -0.53722,11.58994 -2.46455,17.69098 -1.3555,4.29089 -4.08145,10.501621 -6.05765,13.801621 -1.97621,3.3 -6.15466,8.60538 -9.28545,11.78972 -3.13079,3.18435 -8.39235,7.5448 -11.69235,9.68989 -3.3,2.14509 -9.6,5.11809 -14,6.60665 -6.0516,2.04733 -10.60864,2.81923 -18.71088,3.1694 -8.94054,0.3864 -11.85866,0.11428 -17.65523,-1.64638 -3.8194,-1.1601 -7.8125,-2.10928 -8.87354,-2.10928 -1.22342,0 -10.86128,9.41901 -26.34477,25.74656 -13.42857,14.1606 -25.70067,26.9856 -27.27134,28.5 -1.57066,1.51439 -3.15048,2.75344 -3.51071,2.75344 z"
     id="path3731"
     inkscape:connector-curvature="0" />
  <g
     inkscape:groupmode="layer"
     id="layer1"
     inkscape:label="Layer 1"
     style="opacity:0.8" />
  <path
     style="fill:#1c326c;fill-opacity:1;stroke-width:0.71128106"
     d="m 207.46454,177.87496 c -14.39905,-13.98572 -24.09964,-24.46908 -24.09964,-26.04429 0,-2.04033 4.42549,-6.57646 31.56523,-32.35439 l 25.12648,-23.865687 -1.25844,-3.749063 c -10.83389,-32.275633 3.57013,-66.098977 34.28296,-80.502779 8.11336,-3.805036 14.95558,-5.4313902 24.80002,-5.8948189 5.91622,-0.2785073 7.75826,-0.1319077 8.86287,0.7053556 2.15499,1.6334309 1.01398,3.2627322 -10.87418,15.5277563 l -10.70949,11.049013 -1.14006,8.478613 c -0.62703,4.663237 -1.31686,12.479568 -1.53298,17.369626 l -0.39292,8.891013 10.64114,10.563128 10.64115,10.563129 11.65568,-1.161352 c 6.41062,-0.638744 14.02877,-1.475303 16.92921,-1.859018 l 5.27354,-0.69766 9.30772,-9.065683 c 10.70407,-10.425715 15.88132,-14.81009 16.61642,-14.071688 0.28347,0.284742 0.51021,5.211126 0.50387,10.94752 -0.0125,11.32154 -0.63154,14.430699 -4.76721,23.944147 -6.99842,16.098758 -22.0289,29.627578 -38.96505,35.072158 -7.02941,2.2598 -12.24233,2.98138 -21.53825,2.98138 -6.93065,0 -9.80465,-0.35 -15.78077,-1.92182 l -7.30684,-1.92182 -3.57694,2.99479 c -1.96732,1.64713 -10.38501,10.11377 -18.70598,18.81474 -19.57075,20.46453 -34.24845,35.38983 -34.75712,35.34346 -0.22161,-0.0202 -5.0818,-4.58129 -10.80042,-10.13576 z"
     id="path4696"
     inkscape:connector-curvature="0" />
  <path
     style="fill:#1c326c;fill-opacity:1;stroke-width:0.71128106"
     d="m 322.78941,368.69624 c -3.79811,-0.89315 -7.83752,-6.6133 -7.83752,-11.0986 0,-1.13684 -1.20519,-3.52922 -2.96762,-5.89091 -1.6322,-2.18718 -23.02441,-24.03201 -47.53825,-48.54408 l -44.57061,-44.56739 -7.40822,-3.70966 c -9.46585,-4.74002 -10.92107,-5.80041 -13.12783,-9.56596 l -1.81305,-3.09374 1.51905,-3.23164 c 0.83548,-1.7774 4.21073,-6.30436 7.50056,-10.05989 3.28982,-3.75555 5.9815,-7.29557 5.9815,-7.86673 0,-1.45919 -30.07175,-32.27995 -110.98621,-113.75059 C 63.076352,68.587795 27.025771,31.979047 21.428806,25.964276 11.275681,15.05323 7.7907449,9.9529386 7.472116,5.5383082 7.3265458,3.5214207 7.4023899,3.4733505 10.5236,3.6042707 c 1.760421,0.073841 5.532048,1.0472849 8.381395,2.1632077 l 5.18063,2.0289507 61.324149,61.1773529 C 169.24342,152.60675 225.22305,207.96332 225.96369,207.96332 c 0.33983,0 3.40023,-2.48059 6.80089,-5.51243 9.71597,-8.6622 10.87014,-9.42447 14.2698,-9.42447 4.83532,0 8.3197,3.2445 11.45801,10.66921 4.06764,9.62334 2.60489,8.00207 55.90301,61.96119 l 42.58412,43.11224 4.23232,0.44236 c 5.87651,0.61422 8.95292,2.065 10.71621,5.05355 0.81917,1.38839 1.74055,2.52435 2.04751,2.52435 1.07349,0 1.20639,3.45673 0.22284,5.79592 -0.57987,1.3791 -10.20341,11.60117 -23.1589,24.59925 -23.63235,23.71005 -22.51619,22.86011 -28.25009,21.51175 z"
     id="path4698"
     inkscape:connector-curvature="0" />
  <path
     style="fill:#1c326c;fill-opacity:1;stroke-width:0.71128106"
     d="m 27.423091,367.70077 c -4.649325,-1.65936 -16.37654,-12.1532 -22.1284078,-19.8011 -2.476161,-3.2924 -5.44029889,-11.17669 -5.44029889,-14.4706 0,-1.54489 0.41075016,-3.44024 0.91277809,-4.21188 0.5020279,-0.77166 1.3463656,-2.68332 1.8763061,-4.24814 0.5299404,-1.56482 1.7995918,-4.05953 2.8214475,-5.54379 1.0218555,-1.48428 29.683833,-29.17089 63.693282,-61.52581 73.058202,-69.504 78.779272,-74.91094 82.713262,-78.17151 l 3.00369,-2.48952 2.33092,1.4595 c 1.282,0.80273 9.94513,9.09102 19.25141,18.41843 l 16.9205,16.95893 -2.11022,2.91308 c -1.16063,1.6022 -5.41405,6.4042 -9.45205,10.67112 C 100.565,313.51637 70.27845,345.35893 61.371613,354.29154 c -13.189458,13.22763 -15.251964,14.41965 -24.886254,14.38313 -3.520841,-0.0134 -7.598862,-0.45161 -9.062268,-0.9739 z m 15.88775,-21.78378 c 4.331673,-2.20985 7.596677,-6.62383 8.14482,-11.01101 0.599396,-4.79741 -0.501555,-8.20209 -3.85347,-11.91684 -3.058834,-3.38993 -6.044331,-4.78298 -10.204885,-4.76164 -7.750624,0.0398 -14.794771,7.05799 -14.774979,14.72062 0.01062,4.11089 2.9054,9.63918 6.099962,11.64936 5.928102,3.73026 9.270513,4.03257 14.588552,1.31951 z"
     id="path4700"
     inkscape:connector-curvature="0" />
</svg>
